<?xml version="1.0" encoding="UTF-8"?>
<svg width="16px" height="16px" viewBox="0 0 16 16" version="1.1" xmlns="http://www.w3.org/2000/svg" xmlns:xlink="http://www.w3.org/1999/xlink">
    <title>6E95D986-9883-409B-8E75-A5E18ECA9E40</title>
    <defs>
        <path d="M13.2571429,6.85714286 L9.37142857,6.85714286 C9.24520089,6.85714286 9.14285714,6.75479911 9.14285714,6.62857143 L9.14285714,2.74285714 C9.14285714,2.11171874 8.6311384,1.6 8,1.6 C7.3688616,1.6 6.85714286,2.11171874 6.85714286,2.74285714 L6.85714286,6.62857143 C6.85714286,6.75479911 6.75479911,6.85714286 6.62857143,6.85714286 L2.74285714,6.85714286 C2.11171874,6.85714286 1.6,7.3688616 1.6,8 C1.6,8.6311384 2.11171874,9.14285714 2.74285714,9.14285714 L6.62857143,9.14285714 C6.75479911,9.14285714 6.85714286,9.24520089 6.85714286,9.37142857 L6.85714286,13.2571429 C6.85714286,13.8882813 7.3688616,14.4 8,14.4 C8.6311384,14.4 9.14285714,13.8882813 9.14285714,13.2571429 L9.14285714,9.37142857 C9.14285714,9.24520089 9.24520089,9.14285714 9.37142857,9.14285714 L13.2571429,9.14285714 C13.8882813,9.14285714 14.4,8.6311384 14.4,8 C14.4,7.3688616 13.8882813,6.85714286 13.2571429,6.85714286 Z" id="path-1"></path>
    </defs>
    <g id="Page-1" stroke="none" stroke-width="1" fill="none" fill-rule="evenodd">
        <g id="6.1_month_view-copy" transform="translate(-483.000000, -10.000000)">
            <g id="Topbar/State/Inactive" transform="translate(471.000000, 0.000000)">
                <g id="Icon/Add" transform="translate(12.000000, 10.000000)">
                    <mask id="mask-2" fill="white">
                        <use xlink:href="#path-1"></use>
                    </mask>
                    <use id="Add" fill="#000000" fill-rule="nonzero" xlink:href="#path-1"></use>
                    <g id="Color/High-emphasis" mask="url(#mask-2)" fill="#E6E6E6">
                        <rect id="BG" x="0" y="0" width="16" height="16"></rect>
                    </g>
                </g>
            </g>
        </g>
    </g>
</svg>