<?xml version="1.0" encoding="UTF-8"?>
<svg width="16px" height="16px" viewBox="0 0 16 16" version="1.1" xmlns="http://www.w3.org/2000/svg" xmlns:xlink="http://www.w3.org/1999/xlink">
    <title>22A244DD-93C1-4D99-A8FF-714C12649FAE</title>
    <defs>
        <path d="M4.59047619,1.6 C5.11645714,1.6 5.54285714,1.9960262 5.54285714,2.4845399 L5.54285714,2.4845399 L5.54285714,3.14865246 L10.4571429,3.14865246 L10.4571429,2.4845399 C10.4571429,1.9960262 10.8835429,1.6 11.4095238,1.6 L11.4095238,1.6 L11.447619,1.6 C11.9736,1.6 12.4,1.9960262 12.4,2.4845399 L12.4,2.4845399 L12.4,3.14865246 L13.447619,3.14865246 C13.9735619,3.14865246 14.4,3.54467866 14.4,4.03319236 L14.4,4.03319236 L14.4,13.5154601 C14.4,14.0040446 13.9736,14.4 13.447619,14.4 L13.447619,14.4 L2.55238095,14.4 C2.0264,14.4 1.6,14.0040446 1.6,13.5154601 L1.6,13.5154601 L1.6,4.03319236 C1.6,3.54467866 2.0264,3.14865246 2.55238095,3.14865246 L2.55238095,3.14865246 L3.6,3.14865246 L3.6,2.4845399 C3.6,1.9960262 4.0264,1.6 4.55238095,1.6 L4.55238095,1.6 Z M12.8,5.81996296 L3.2,5.81996296 L3.2,13.002427 L12.8,13.002427 L12.8,5.81996296 Z M6.16186667,9.72488819 C6.24601905,9.72488819 6.31424762,9.78825663 6.31424762,9.86641457 L6.31424762,9.86641457 L6.31424762,11.4054432 C6.31424762,11.4836012 6.24601905,11.5469696 6.16186667,11.5469696 L6.16186667,11.5469696 L4.5048,11.5469696 C4.42064762,11.5469696 4.35241905,11.4836012 4.35241905,11.4054432 L4.35241905,11.4054432 L4.35241905,9.86641457 C4.35241905,9.78825663 4.42064762,9.72488819 4.5048,9.72488819 L4.5048,9.72488819 Z M8.82853333,9.72488819 C8.91268571,9.72488819 8.98091429,9.78825663 8.98091429,9.86641457 L8.98091429,9.86641457 L8.98091429,11.4054432 C8.98091429,11.4836012 8.91268571,11.5469696 8.82853333,11.5469696 L8.82853333,11.5469696 L7.17146667,11.5469696 C7.08731429,11.5469696 7.01908571,11.4836012 7.01908571,11.4054432 L7.01908571,11.4054432 L7.01908571,9.86641457 C7.01908571,9.78825663 7.08731429,9.72488819 7.17146667,9.72488819 L7.17146667,9.72488819 Z M11.4952,9.72488819 C11.5793524,9.72488819 11.647581,9.78825663 11.647581,9.86641457 L11.647581,9.86641457 L11.647581,11.4054432 C11.647581,11.4836012 11.5793524,11.5469696 11.4952,11.5469696 L11.4952,11.5469696 L9.83813333,11.5469696 C9.75398095,11.5469696 9.68575238,11.4836012 9.68575238,11.4054432 L9.68575238,11.4054432 L9.68575238,9.86641457 C9.68575238,9.78825663 9.75398095,9.72488819 9.83813333,9.72488819 L9.83813333,9.72488819 Z M6.16186667,7.24817647 C6.24601905,7.24817647 6.31424762,7.3115449 6.31424762,7.38970285 L6.31424762,7.38970285 L6.31424762,8.92873151 C6.31424762,9.00688946 6.24601905,9.0702579 6.16186667,9.0702579 L6.16186667,9.0702579 L4.5048,9.0702579 C4.42064762,9.0702579 4.35241905,9.00688946 4.35241905,8.92873151 L4.35241905,8.92873151 L4.35241905,7.38970285 C4.35241905,7.3115449 4.42064762,7.24817647 4.5048,7.24817647 L4.5048,7.24817647 Z M8.82853333,7.24817647 C8.91268571,7.24817647 8.98091429,7.3115449 8.98091429,7.38970285 L8.98091429,7.38970285 L8.98091429,8.92873151 C8.98091429,9.00688946 8.91268571,9.0702579 8.82853333,9.0702579 L8.82853333,9.0702579 L7.17146667,9.0702579 C7.08731429,9.0702579 7.01908571,9.00688946 7.01908571,8.92873151 L7.01908571,8.92873151 L7.01908571,7.38970285 C7.01908571,7.3115449 7.08731429,7.24817647 7.17146667,7.24817647 L7.17146667,7.24817647 Z M11.4952,7.24817647 C11.5793524,7.24817647 11.647581,7.3115449 11.647581,7.38970285 L11.647581,7.38970285 L11.647581,8.92873151 C11.647581,9.00688946 11.5793524,9.0702579 11.4952,9.0702579 L11.4952,9.0702579 L9.83813333,9.0702579 C9.75398095,9.0702579 9.68575238,9.00688946 9.68575238,8.92873151 L9.68575238,8.92873151 L9.68575238,7.38970285 C9.68575238,7.3115449 9.75398095,7.24817647 9.83813333,7.24817647 L9.83813333,7.24817647 Z" id="path-1"></path>
    </defs>
    <g id="Page-1" stroke="none" stroke-width="1" fill="none" fill-rule="evenodd">
        <g id="6.1_month_view-copy" transform="translate(-232.000000, -10.000000)">
            <g id="Topbar/State/Active" transform="translate(220.000000, 0.000000)">
                <g id="Icon/Calender" transform="translate(12.000000, 10.000000)">
                    <mask id="mask-2" fill="white">
                        <use xlink:href="#path-1"></use>
                    </mask>
                    <use id="Calender" fill="#000000" fill-rule="nonzero" xlink:href="#path-1"></use>
                    <g id="Color/High-emphasis" mask="url(#mask-2)" fill="#E6E6E6">
                        <rect id="BG" x="0" y="0" width="16" height="16"></rect>
                    </g>
                </g>
            </g>
        </g>
    </g>
</svg>