<?xml version="1.0" encoding="UTF-8"?>
<svg width="16px" height="16px" viewBox="0 0 16 16" version="1.1" xmlns="http://www.w3.org/2000/svg" xmlns:xlink="http://www.w3.org/1999/xlink">
    <title>849F8933-B402-4005-B927-0768343AF421</title>
    <defs>
        <path d="M13.25,5.35 C13.4572266,5.35 13.625,5.51777345 13.625,5.725 L13.625,5.725 L13.625,13.65 L14.025,13.65 C14.2322266,13.65 14.4,13.8177735 14.4,14.025 C14.4,14.2322266 14.2322266,14.4 14.025,14.4 L14.025,14.4 L1.975,14.4 C1.76777345,14.4 1.6,14.2322266 1.6,14.025 C1.6,13.8177735 1.76777345,13.65 1.975,13.65 L1.975,13.65 L2.375,13.65 L2.375,9.475 C2.375,9.26777345 2.54277345,9.1 2.75,9.1 L2.75,9.1 L4.25,9.1 C4.45722655,9.1 4.625,9.26777345 4.625,9.475 L4.625,9.475 L4.625,13.65 L5.375,13.65 L5.375,10.975 C5.375,10.7677735 5.54277345,10.6 5.75,10.6 L5.75,10.6 L7.25,10.6 C7.45722655,10.6 7.625,10.7677735 7.625,10.975 L7.625,10.975 L7.625,13.65 L8.375,13.65 L8.375,7.975 C8.375,7.76777345 8.54277345,7.6 8.75,7.6 L8.75,7.6 L10.25,7.6 C10.4572266,7.6 10.625,7.76777345 10.625,7.975 L10.625,7.975 L10.625,13.65 L11.375,13.65 L11.375,5.725 C11.375,5.51777345 11.5427735,5.35 11.75,5.35 L11.75,5.35 Z M12.5,1.6 C13.1203125,1.6 13.625,2.1046875 13.625,2.725 C13.625,3.3453125 13.1203125,3.85 12.5,3.85 C12.2697266,3.85 12.0557617,3.77998048 11.8772461,3.6607422 L11.8772461,3.6607422 L10.5688477,4.64179688 C10.6020508,4.7477539 10.625,4.85820313 10.625,4.975 C10.625,5.5953125 10.1203125,6.1 9.5,6.1 C9.32685548,6.1 9.1647461,6.05742188 9.0180664,5.98720703 L9.0180664,5.98720703 L7.51220703,7.4930664 C7.58242188,7.6397461 7.625,7.80185548 7.625,7.975 C7.625,8.5953125 7.1203125,9.1 6.5,9.1 C5.8796875,9.1 5.375,8.5953125 5.375,7.975 C5.375,7.9283203 5.38320313,7.88388673 5.38876953,7.83867188 L5.38876953,7.83867188 L4.27871095,7.2836914 C4.0763672,7.47861328 3.80253905,7.6 3.5,7.6 C2.8796875,7.6 2.375,7.0953125 2.375,6.475 C2.375,5.8546875 2.8796875,5.35 3.5,5.35 C4.1203125,5.35 4.625,5.8546875 4.625,6.475 C4.625,6.5216797 4.61679688,6.56611328 4.61123048,6.61132813 L4.61123048,6.61132813 L5.72128905,7.1663086 C5.9236328,6.97138673 6.19746095,6.85 6.5,6.85 C6.67314453,6.85 6.8352539,6.89257813 6.9819336,6.96279298 L6.9819336,6.96279298 L8.48779298,5.4569336 C8.41757813,5.3102539 8.375,5.14814453 8.375,4.975 C8.375,4.3546875 8.8796875,3.85 9.5,3.85 C9.73027345,3.85 9.94423828,3.92001953 10.1227539,4.0392578 L10.1227539,4.0392578 L11.4311524,3.05820313 C11.3979492,2.9522461 11.375,2.84179688 11.375,2.725 C11.375,2.1046875 11.8796875,1.6 12.5,1.6 Z" id="path-1"></path>
    </defs>
    <g id="Page-1" stroke="none" stroke-width="1" fill="none" fill-rule="evenodd">
        <g id="6.1_month_view-copy" transform="translate(-192.000000, -10.000000)">
            <g id="Topbar/State/Inactive" transform="translate(180.000000, 0.000000)">
                <g id="Icon/Dashboard" transform="translate(12.000000, 10.000000)">
                    <mask id="mask-2" fill="white">
                        <use xlink:href="#path-1"></use>
                    </mask>
                    <use id="Dashboard" fill="#000000" fill-rule="nonzero" xlink:href="#path-1"></use>
                    <g id="Color/High-emphasis" mask="url(#mask-2)" fill="#E6E6E6">
                        <rect id="BG" x="0" y="0" width="16" height="16"></rect>
                    </g>
                </g>
            </g>
        </g>
    </g>
</svg>