<?xml version="1.0" encoding="UTF-8"?>
<svg width="16px" height="16px" viewBox="0 0 16 16" version="1.1" xmlns="http://www.w3.org/2000/svg" xmlns:xlink="http://www.w3.org/1999/xlink">
    <title>707BCE82-0693-460D-A1AF-9DA35A8E4DD9</title>
    <defs>
        <path d="M9.3294099,8.7812391 C9.42783471,8.69633926 9.57263443,8.69373927 9.67263423,8.77523911 C10.9002318,9.77161216 12.9567528,11.2606593 14.0731506,12.0593577 C14.1354005,12.1041576 14.1755004,12.1734325 14.1833254,12.2497073 C14.1908754,12.3260072 14.1653505,12.401782 14.1132756,12.4577819 C13.910926,12.6752315 13.6268265,12.7999813 13.3333271,12.7999813 L13.3333271,12.7999813 L2.66667292,12.7999813 C2.37317349,12.7999813 2.08879905,12.6752315 1.88694944,12.4577569 C1.83459954,12.401507 1.80934959,12.3257322 1.81689958,12.2494323 C1.82469956,12.1731325 1.86479948,12.1041326 1.92704936,12.0593327 C3.04527218,11.2590593 5.10411816,9.76818717 6.32756577,8.77521411 C6.42784057,8.69318927 6.57289029,8.69578927 6.6705401,8.7812141 C6.91143963,8.99058869 7.11298923,9.16821334 7.25543895,9.29658809 C7.69553809,9.69346232 8.3049119,9.69346232 8.74398605,9.29711309 C8.88696077,9.16848834 9.08853537,8.99138869 9.3294099,8.7812391 Z M13.9609259,4.82369683 C14.0395757,4.75649696 14.1507755,4.74114699 14.2453003,4.7851469 C14.3395501,4.82864682 14.4,4.92317163 14.4,5.02707143 L14.4,5.02707143 L14.4,11.1174095 C14.4,11.2174093 14.3440251,11.3090842 14.2549503,11.3546591 C14.2166504,11.374459 14.1750004,11.384084 14.1333255,11.384084 C14.0783756,11.384084 14.0237007,11.367159 13.9776008,11.3338341 C12.8216281,10.5020607 11.2208562,9.33173802 10.1586083,8.48096469 C10.0966334,8.43148978 10.0599085,8.35676493 10.0585724,8.27759008 C10.0573085,8.19816524 10.0911584,8.12239039 10.1513083,8.07081549 C10.5800168,7.70206933 11.0611292,7.290401 11.5557274,6.86842794 L12.5513739,6.02040665 C13.0466565,5.59919063 13.5294798,5.18941486 13.9609259,4.82369683 Z M1.7546997,4.7851469 C1.84844951,4.74167199 1.9598993,4.75649696 2.03907414,4.82369683 C2.4705108,5.18941486 2.95336689,5.59919063 3.44869551,6.02040665 L4.44444298,6.86842794 C4.93909192,7.290401 5.42024879,7.70206933 5.8489667,8.07081549 C5.90911658,8.12239039 5.94296652,8.19816524 5.94170264,8.27759008 C5.94036652,8.35673993 5.90364159,8.43148978 5.84166672,8.48096469 C4.77969379,9.33176302 3.17864692,10.5020607 2.02239918,11.3338341 C1.97629927,11.367184 1.92162437,11.384109 1.86667448,11.384109 C1.82499956,11.384109 1.78332464,11.374484 1.74504972,11.3546841 C1.65599989,11.3091092 1.6,11.2174343 1.6,11.1174345 L1.6,11.1174345 L1.6,5.02707143 C1.6,4.92317163 1.66042488,4.82864682 1.7546997,4.7851469 Z M13.3333021,3.2 C13.6604014,3.2 13.9656008,3.34974971 14.1703004,3.6109242 C14.2588503,3.72394898 14.2421753,3.88644866 14.1328005,3.97889848 C12.376029,5.46667057 9.29348497,8.08436546 8.38671174,8.90128886 C8.26536198,9.01091365 8.13513724,9.06638854 7.9999875,9.06638854 C7.86456276,9.06638854 7.73411302,9.01038865 7.61248826,8.90023887 C6.70649003,8.08411546 3.62394605,5.46667057 1.86719948,3.97889848 C1.75782469,3.88644866 1.74114972,3.72394898 1.82969955,3.6109492 C2.03437415,3.34974971 2.33959856,3.2 2.66667292,3.2 L2.66667292,3.2 Z" id="path-1"></path>
    </defs>
    <g id="Page-1" stroke="none" stroke-width="1" fill="none" fill-rule="evenodd">
        <g id="6.1_month_view-copy" transform="translate(-312.000000, -10.000000)">
            <g id="Topbar/State/Inactive" transform="translate(300.000000, 0.000000)">
                <g id="Icon/Mail" transform="translate(12.000000, 10.000000)">
                    <mask id="mask-2" fill="white">
                        <use xlink:href="#path-1"></use>
                    </mask>
                    <use id="Mail" fill="#000000" fill-rule="nonzero" xlink:href="#path-1"></use>
                    <g id="Color/High-emphasis" mask="url(#mask-2)" fill="#E6E6E6">
                        <rect id="BG" x="0" y="0" width="16" height="16"></rect>
                    </g>
                </g>
            </g>
        </g>
    </g>
</svg>