<?xml version="1.0" encoding="UTF-8"?>
<svg width="16px" height="16px" viewBox="0 0 16 16" version="1.1" xmlns="http://www.w3.org/2000/svg" xmlns:xlink="http://www.w3.org/1999/xlink">
    <title>79009929-055D-4606-8E91-2E948A712A47</title>
    <defs>
        <path d="M8,10.1332813 C9.17809375,10.1332813 10.1332813,11.089125 10.1332813,12.2667188 L10.1332813,12.2667188 L10.1332813,14.4 L1.6,14.4 L1.6,12.2667188 C1.6,11.088625 2.5551875,10.1332813 3.73328125,10.1332813 L3.73328125,10.1332813 Z M12.2667188,6.93328125 C13.4448125,6.93328125 14.4,7.889125 14.4,9.06671875 L14.4,9.06671875 L14.4,11.2 L11.0135938,11.2 C10.6916875,10.29375 9.97184375,9.58015625 9.06671875,9.258875 L9.06671875,9.258875 L9.06671875,6.93328125 Z M5.86671875,4.8 C7.0448125,4.8 8,5.7551875 8,6.93328125 C8,8.11153125 7.04478125,9.0665625 5.86671875,9.0665625 C4.68865625,9.0665625 3.73328125,8.11153125 3.73328125,6.93328125 C3.73328125,5.7551875 4.688625,4.8 5.86671875,4.8 Z M10.1332813,1.6 C11.3113438,1.6 12.2667188,2.5551875 12.2667188,3.73328125 C12.2667188,4.911375 11.311375,5.8665625 10.1332813,5.8665625 C8.9551875,5.8665625 8,4.911375 8,3.73328125 C8,2.5551875 8.9551875,1.6 10.1332813,1.6 Z" id="path-1"></path>
    </defs>
    <g id="Page-1" stroke="none" stroke-width="1" fill="none" fill-rule="evenodd">
        <g id="6.1_month_view-copy" transform="translate(-272.000000, -10.000000)">
            <g id="Topbar/State/Inactive" transform="translate(260.000000, 0.000000)">
                <g id="Icon/People" transform="translate(12.000000, 10.000000)">
                    <mask id="mask-2" fill="white">
                        <use xlink:href="#path-1"></use>
                    </mask>
                    <use id="People" fill="#000000" fill-rule="nonzero" xlink:href="#path-1"></use>
                    <g id="Color/High-emphasis" mask="url(#mask-2)" fill="#E6E6E6">
                        <rect id="BG" x="0" y="0" width="16" height="16"></rect>
                    </g>
                </g>
            </g>
        </g>
    </g>
</svg>