<?xml version="1.0" encoding="UTF-8"?>
<svg width="16px" height="16px" viewBox="0 0 16 16" version="1.1" xmlns="http://www.w3.org/2000/svg" xmlns:xlink="http://www.w3.org/1999/xlink">
    <title>1F37C88D-2DD0-4E4B-B199-8CA317D3A3DA</title>
    <defs>
        <path d="M13.9428485,4.8000067 L11.6571448,4.8000067 L11.6571448,2.05715147 C11.6571448,1.8046695 11.4524753,1.6 11.1999933,1.6 L2.05715147,1.6 C1.8046695,1.6 1.6,1.8046695 1.6,2.05715147 L1.6,12.5714209 C1.6,13.581322 2.418678,14.4 3.42857908,14.4 L12.5714209,14.4 C13.581322,14.4 14.4,13.581322 14.4,12.5714209 L14.4,5.25713138 C14.4,5.0046762 14.1953305,4.8000067 13.9428485,4.8000067 Z M5.25713138,3.88570376 L7.99998661,3.88570376 C8.25246857,3.88570376 8.45713807,4.09037326 8.45713807,4.34285523 C8.45713807,4.5953372 8.25246857,4.8000067 7.99998661,4.8000067 L5.25713138,4.8000067 C5.00464941,4.8000067 4.79997991,4.5953372 4.79997991,4.34285523 C4.79997991,4.09037326 5.0046762,3.88570376 5.25713138,3.88570376 Z M9.37141422,12.5714209 L3.88570376,12.5714209 C3.6332218,12.5714209 3.4285523,12.3667514 3.4285523,12.1142695 C3.4285523,11.8617875 3.6332218,11.657118 3.88570376,11.657118 L9.37141422,11.657118 C9.62389619,11.657118 9.82856569,11.8617875 9.82856569,12.1142695 C9.82856569,12.3667514 9.62389619,12.5714209 9.37141422,12.5714209 Z M9.37141422,10.7428418 L3.88570376,10.7428418 C3.6332218,10.7428418 3.4285523,10.5381723 3.4285523,10.2856904 C3.4285523,10.0332084 3.6332218,9.8285389 3.88570376,9.8285389 L9.37141422,9.8285389 C9.62389619,9.8285389 9.82856569,10.0332084 9.82856569,10.2856904 C9.82856569,10.5381723 9.62389619,10.7428418 9.37141422,10.7428418 Z M9.37141422,8.91428954 L3.88570376,8.91428954 C3.6332218,8.91428954 3.4285523,8.70962004 3.4285523,8.45713807 C3.4285523,8.20465611 3.6332218,7.99998661 3.88570376,7.99998661 L9.37141422,7.99998661 C9.62389619,7.99998661 9.82856569,8.20465611 9.82856569,8.45713807 C9.82856569,8.70962004 9.62389619,8.91428954 9.37141422,8.91428954 Z M9.37141422,7.08571046 L3.88570376,7.08571046 C3.6332218,7.08571046 3.4285523,6.88104096 3.4285523,6.62855899 C3.4285523,6.37607703 3.6332218,6.17140753 3.88570376,6.17140753 L9.37141422,6.17140753 C9.62389619,6.17140753 9.82856569,6.37607703 9.82856569,6.62855899 C9.82856569,6.88104096 9.62389619,7.08571046 9.37141422,7.08571046 Z M13.4856971,12.5714209 C13.4856971,13.0763581 13.0763581,13.4856971 12.5714209,13.4856971 C12.0664838,13.4856971 11.6571448,13.0763581 11.6571448,12.5714209 L11.6571448,5.71428284 L13.4857239,5.71428284 L13.4857239,12.5714209 L13.4856971,12.5714209 Z" id="path-1"></path>
    </defs>
    <g id="Page-1" stroke="none" stroke-width="1" fill="none" fill-rule="evenodd">
        <g id="6.1_month_view-copy" transform="translate(-352.000000, -10.000000)">
            <g id="Topbar/State/Inactive" transform="translate(340.000000, 0.000000)">
                <g id="Icon/Reports" transform="translate(12.000000, 10.000000)">
                    <mask id="mask-2" fill="white">
                        <use xlink:href="#path-1"></use>
                    </mask>
                    <use id="Reports" fill="#000000" xlink:href="#path-1"></use>
                    <g id="Color/High-emphasis" mask="url(#mask-2)" fill="#E6E6E6">
                        <rect id="BG" x="0" y="0" width="16" height="16"></rect>
                    </g>
                </g>
            </g>
        </g>
    </g>
</svg>