<?xml version="1.0" encoding="UTF-8"?>
<svg width="16px" height="16px" viewBox="0 0 16 16" version="1.1" xmlns="http://www.w3.org/2000/svg" xmlns:xlink="http://www.w3.org/1999/xlink">
    <title>AD90EA82-8275-44E8-9E6B-CB47079DF03F</title>
    <defs>
        <path d="M10.5174282,9.19550079 C12.0846605,7.02583074 11.5605025,4.02147439 9.34743271,2.48534356 C7.1343629,0.949212736 4.06991084,1.46272451 2.50305296,3.63276169 C0.936195079,5.80243183 1.45997867,8.80642105 3.67342286,10.3425519 C5.25301024,11.4389492 7.34140536,11.5233723 9.00747883,10.5587481 L12.6275383,14.0865267 C13.0184105,14.4899217 13.6687408,14.5060722 14.0802047,14.1228653 C14.4916687,13.7400255 14.5081422,13.1024487 14.1176446,12.6990538 C14.1052894,12.6862068 14.0933087,12.674461 14.0802047,12.6623481 L10.5174282,9.19550079 Z M6.50724541,9.52438336 C4.75842979,9.52475041 3.34058248,8.13580916 3.33945918,6.4212889 C3.33908488,4.70676863 4.75580897,3.31672619 6.50499897,3.31599183 C8.25156815,3.31525796 9.66866671,4.70199692 9.67204102,6.4143148 C9.67503146,8.1292021 8.25905622,9.52144684 6.50949175,9.52438336 C6.508743,9.52438336 6.50836853,9.52438336 6.50724541,9.52438336 Z" id="path-1"></path>
    </defs>
    <g id="Page-1" stroke="none" stroke-width="1" fill="none" fill-rule="evenodd">
        <g id="6.1_month_view-copy" transform="translate(-515.000000, -10.000000)">
            <g id="Topbar/State/Inactive" transform="translate(503.000000, 0.000000)">
                <g id="Icon/Search" transform="translate(12.000000, 10.000000)">
                    <mask id="mask-2" fill="white">
                        <use xlink:href="#path-1"></use>
                    </mask>
                    <use id="Search" fill="#000000" fill-rule="nonzero" xlink:href="#path-1"></use>
                    <g id="Color/High-emphasis" mask="url(#mask-2)" fill="#E6E6E6">
                        <rect id="BG" x="0" y="0" width="16" height="16"></rect>
                    </g>
                </g>
            </g>
        </g>
    </g>
</svg>