<?xml version="1.0" encoding="UTF-8"?>
<svg width="16px" height="16px" viewBox="0 0 16 16" version="1.1" xmlns="http://www.w3.org/2000/svg" xmlns:xlink="http://www.w3.org/1999/xlink">
    <title>D33AF86A-3063-469B-BD69-29B4FB20EE2F</title>
    <defs>
        <path d="M12.7051667,6.42902602 L12.6442809,6.40687226 L12.4064836,5.82744708 L12.4322709,5.76791105 C13.1526547,4.1001601 13.1029838,4.0504113 12.9834968,3.92950192 L12.0225812,2.97261475 C11.9832945,2.93282984 11.914309,2.90484614 11.8548424,2.90484614 C11.8007756,2.90484614 11.6370174,2.90484614 10.2178142,3.56097916 L10.160909,3.58705489 L9.57538089,3.34636678 L9.55187807,3.28686608 C8.88448812,1.6 8.81612573,1.6 8.65004841,1.6 L7.29301178,1.6 C7.1275575,1.6 7.05220312,1.6 6.43334181,3.28979871 L6.41004667,3.35131339 L5.82756454,3.59369748 L5.77187083,3.57005973 C4.81126681,3.15666413 4.25038373,2.94703369 4.10417476,2.94703369 C4.04484659,2.94703369 3.97561886,2.97420473 3.93615905,3.01388364 L2.97434355,3.97352678 C2.85232968,4.09637948 2.8017242,4.14782426 3.5598371,5.78077225 L3.58770126,5.84133294 L3.34952325,6.42012212 L3.2912335,6.44312388 C1.6,7.11028079 1.6,7.17532876 1.6,7.34909625 L1.6,8.70651783 C1.6,8.88074464 1.6,8.95310654 3.29459104,9.57302329 L3.35516531,9.59485905 L3.59337793,10.1719523 L3.56779829,10.230923 C2.84741451,11.8994512 2.89310481,11.9446068 3.01574174,12.0691201 L3.97520349,13.0273146 C4.0154248,13.0667815 4.08503329,13.0949772 4.14439607,13.0949772 C4.19811679,13.0949772 4.36149424,13.0949772 5.78163194,12.4391622 L5.83850252,12.4119911 L6.42441143,12.6538806 L6.44718735,12.7136993 C7.11499267,14.4 7.18359735,14.4 7.34977853,14.4 L8.70723051,14.4 C8.87766919,14.4 8.9483507,14.4 9.56769661,12.7090706 L9.59078406,12.6475206 L10.1742008,12.4067618 L10.2297214,12.4298696 C11.1895293,12.8444312 11.7501355,13.0536376 11.8954099,13.0536376 C11.9542188,13.0536376 12.0240696,13.0273146 12.0641871,12.9867523 L13.0275602,12.0250246 C13.1487434,11.9015359 13.199245,11.8510451 12.4397821,10.2196517 L12.4115372,10.1583844 L12.6492999,9.58210386 L12.7060666,9.55938476 C14.4,8.88872989 14.4,8.82336392 14.4,8.64938443 L14.4,7.29277551 C14.4,7.11858403 14.4,7.04664613 12.7051667,6.42902602 Z M8.00050368,11.2044212 C6.23569855,11.2044212 4.8,9.76691746 4.8,8.00128512 C4.8,6.23560136 6.23574891,4.8 8.00050368,4.8 C9.7645533,4.8 11.2,6.23590985 11.2,8.00128512 C11.2,9.76660897 9.76460366,11.2044212 8.00050368,11.2044212 Z" id="path-1"></path>
    </defs>
    <g id="Page-1" stroke="none" stroke-width="1" fill="none" fill-rule="evenodd">
        <g id="6.1_month_view-copy" transform="translate(-392.000000, -10.000000)">
            <g id="Topbar/State/Inactive" transform="translate(380.000000, 0.000000)">
                <g id="Icon/Settings" transform="translate(12.000000, 10.000000)">
                    <mask id="mask-2" fill="white">
                        <use xlink:href="#path-1"></use>
                    </mask>
                    <use id="Settings" fill="#000000" xlink:href="#path-1"></use>
                    <g id="Color/High-emphasis" mask="url(#mask-2)" fill="#E6E6E6">
                        <rect id="BG" x="0" y="0" width="16" height="16"></rect>
                    </g>
                </g>
            </g>
        </g>
    </g>
</svg>