<?xml version="1.0" encoding="UTF-8"?>
<svg width="16px" height="16px" viewBox="0 0 16 16" version="1.1" xmlns="http://www.w3.org/2000/svg" xmlns:xlink="http://www.w3.org/1999/xlink">
    <title>6101EC88-DAB1-4317-A08E-6CF5EB31BC11</title>
    <defs>
        <path d="M8,12.730425 C8.230575,12.730425 8.4174,12.91725 8.4174,13.147825 L8.4174,13.147825 L8.4174,13.9826 C8.4174,14.213175 8.230575,14.4 8,14.4 C7.769425,14.4 7.5826,14.213175 7.5826,13.9826 L7.5826,13.9826 L7.5826,13.147825 C7.5826,12.91725 7.769425,12.730425 8,12.730425 Z M5.064675,12.24945 C5.179875,12.05015 5.435325,11.981275 5.634775,12.09675 C5.834375,12.21195 5.90285,12.46725 5.787475,12.66685 L5.787475,12.66685 L5.370075,13.3898 C5.254725,13.589475 4.999575,13.657975 4.799975,13.5425 C4.6004,13.4273 4.5319,13.172 4.647275,12.9724 L4.647275,12.9724 Z M10.3652,12.0968 C10.565475,11.981275 10.8202,12.049775 10.9353,12.2495 L10.9353,12.2495 L11.3527,12.97245 C11.468075,13.172025 11.3996,13.4273 11.2,13.54255 C11.00065,13.657875 10.74545,13.590125 10.6299,13.38985 L10.6299,13.38985 L10.2125,12.6669 C10.097125,12.4673 10.1656,12.212025 10.3652,12.0968 Z M8,4.10435 C10.1481,4.10435 11.89565,5.8519 11.89565,8 C11.89565,10.1481 10.1481,11.89565 8,11.89565 C5.8519,11.89565 4.10435,10.1481 4.10435,8 C4.10435,5.8519 5.8519,4.10435 8,4.10435 Z M3.333125,10.212525 C3.532975,10.09715 3.788125,10.1655 3.903225,10.365225 C4.0186,10.564825 3.9501,10.8201 3.750525,10.935325 L3.750525,10.935325 L3.027575,11.352725 C2.82825,11.468075 2.573025,11.4003 2.457475,11.200025 C2.342125,11.000425 2.4106,10.745125 2.610175,10.629925 L2.610175,10.629925 Z M12.09675,10.3652 C12.21195,10.1659 12.46725,10.097125 12.66685,10.2125 L12.66685,10.2125 L13.3898,10.6299 C13.5894,10.7451 13.657875,11.0004 13.5425,11.2 C13.42715,11.39965 13.172,11.468175 12.9724,11.3527 L12.9724,11.3527 L12.24945,10.9353 C12.049875,10.8201 11.981375,10.5648 12.09675,10.3652 Z M2.852175,7.5826 C3.08275,7.5826 3.269575,7.769425 3.269575,8 C3.269575,8.230575 3.08275,8.4174 2.852175,8.4174 L2.852175,8.4174 L2.0174,8.4174 C1.786825,8.4174 1.6,8.230575 1.6,8 C1.6,7.769425 1.786825,7.5826 2.0174,7.5826 L2.0174,7.5826 Z M13.9826,7.5826 C14.213025,7.5826 14.4,7.769425 14.4,8 C14.4,8.230575 14.213025,8.4174 13.9826,8.4174 L13.9826,8.4174 L13.147825,8.4174 C12.91725,8.4174 12.730425,8.230575 12.730425,8 C12.730425,7.769425 12.91725,7.5826 13.147825,7.5826 L13.147825,7.5826 Z M12.9724,4.6473 C13.172375,4.531775 13.4274,4.60055 13.5425,4.8 C13.657875,4.9996 13.5894,5.254875 13.3898,5.3701 L13.3898,5.3701 L12.66685,5.7875 C12.4675,5.90285 12.2123,5.835075 12.09675,5.6348 C11.981375,5.4352 12.04985,5.179925 12.24945,5.0647 L12.24945,5.0647 Z M2.4575,4.799975 C2.57285,4.600525 2.827875,4.5318 3.0276,4.647275 L3.0276,4.647275 L3.75055,5.064675 C3.950125,5.179875 4.018625,5.435175 3.90325,5.6348 C3.78795,5.83445 3.53275,5.902975 3.33315,5.7875 L3.33315,5.7875 L2.6102,5.370075 C2.410625,5.254875 2.342125,4.999575 2.4575,4.799975 Z M10.6299,2.6102 C10.74525,2.4109 11.00055,2.342275 11.2,2.4575 C11.3996,2.5727 11.468075,2.828 11.3527,3.0276 L11.3527,3.0276 L10.9353,3.75055 C10.81995,3.9502 10.5648,4.018725 10.3652,3.90325 C10.165625,3.78805 10.097125,3.53275 10.2125,3.33315 L10.2125,3.33315 Z M4.8,2.4575 C5.000125,2.34225 5.255025,2.4106 5.3701,2.6102 L5.3701,2.6102 L5.7875,3.33315 C5.90285,3.53275 5.834375,3.788025 5.6348,3.90325 C5.435475,4.0186 5.18025,3.950825 5.0647,3.75055 L5.0647,3.75055 L4.6473,3.0276 C4.531925,2.828 4.6004,2.572725 4.8,2.4575 Z M8,1.6 C8.230575,1.6 8.4174,1.786825 8.4174,2.0174 L8.4174,2.0174 L8.4174,2.852175 C8.4174,3.08275 8.230575,3.269575 8,3.269575 C7.769425,3.269575 7.5826,3.08275 7.5826,2.852175 L7.5826,2.852175 L7.5826,2.0174 C7.5826,1.786825 7.769425,1.6 8,1.6 Z" id="path-1"></path>
    </defs>
    <g id="Page-1" stroke="none" stroke-width="1" fill="none" fill-rule="evenodd">
        <g id="6.1_month_view-copy" transform="translate(-1152.000000, -10.000000)">
            <g id="Icon/Theme" transform="translate(1152.000000, 10.000000)">
                <mask id="mask-2" fill="white">
                    <use xlink:href="#path-1"></use>
                </mask>
                <use id="Theme" fill="#000000" fill-rule="nonzero" xlink:href="#path-1"></use>
                <g id="Color/High-emphasis" mask="url(#mask-2)" fill="#E6E6E6">
                    <rect id="BG" x="0" y="0" width="16" height="16"></rect>
                </g>
            </g>
        </g>
    </g>
</svg>