<svg xmlns="http://www.w3.org/2000/svg" xmlns:xlink="http://www.w3.org/1999/xlink" width="10" height="10" viewBox="0 0 10 10">
    <defs>
        <path id="bhe8wq497a" d="M3.222 1v.86h3.556V1h.889v.86h.444c.491 0 .889.386.889.861v5.418C9 8.615 8.602 9 8.111 9H1.89C1.398 9 1 8.615 1 8.14l.004-5.419c0-.475.394-.86.885-.86h.444V1h.89zm4.89 2.407H1.888v4.732H8.11V3.407zm-1.57.86l.471.456-2.64 2.556L2.96 5.911l.471-.456.942.912 2.17-2.1z"/>
    </defs>
    <g fill="none" fill-rule="evenodd">
        <mask id="hvkzb9bfdb" fill="#fff">
            <use xlink:href="#bhe8wq497a"/>
        </mask>
        <use fill="#000" fill-rule="nonzero" xlink:href="#bhe8wq497a"/>
        <g fill="#E6E6E6" mask="url(#hvkzb9bfdb)">
            <path d="M0 0H10V10H0z"/>
        </g>
    </g>
</svg>
